<svg width="400" height="600" xmlns="http://www.w3.org/2000/svg">
  <defs>
    <linearGradient id="skinGrad" x1="0%" y1="0%" x2="0%" y2="100%">
      <stop offset="0%" style="stop-color:#ffdbcc;stop-opacity:1" />
      <stop offset="100%" style="stop-color:#ffccb3;stop-opacity:1" />
    </linearGradient>
  </defs>

  <!-- Corpo - jaleco branco -->
  <path d="M 120 250 Q 100 350 90 600 L 310 600 Q 300 350 280 250 Z" fill="#ffffff" stroke="#e0e0e0" stroke-width="2"/>

  <!-- Cabeça -->
  <ellipse cx="200" cy="150" rx="60" ry="70" fill="url(#skinGrad)"/>

  <!-- Cabelo -->
  <path d="M 140 120 Q 130 80 160 70 Q 200 60 240 70 Q 270 80 260 120 Q 260 100 200 95 Q 140 100 140 120 Z" fill="#4a3428"/>

  <!-- Olhos -->
  <ellipse cx="180" cy="145" rx="8" ry="10" fill="#333"/>
  <ellipse cx="220" cy="145" rx="8" ry="10" fill="#333"/>
  <circle cx="182" cy="143" r="3" fill="#ffffff"/>
  <circle cx="222" cy="143" r="3" fill="#ffffff"/>

  <!-- Nariz -->
  <path d="M 200 155 L 195 165 L 205 165 Z" fill="#ffccb3" opacity="0.5"/>

  <!-- Boca - sorriso -->
  <path d="M 185 175 Q 200 185 215 175" stroke="#d4876f" stroke-width="2" fill="none" stroke-linecap="round"/>

  <!-- Pescoço -->
  <rect x="185" y="210" width="30" height="40" fill="url(#skinGrad)"/>

  <!-- Gola do jaleco -->
  <path d="M 170 250 L 180 220 L 200 210 L 220 220 L 230 250 Z" fill="#ffffff" stroke="#e0e0e0" stroke-width="2"/>

  <!-- Estetoscópio -->
  <path d="M 150 270 Q 140 300 145 330" stroke="#4169c4" stroke-width="6" fill="none"/>
  <path d="M 250 270 Q 260 300 255 330" stroke="#4169c4" stroke-width="6" fill="none"/>
  <path d="M 145 330 Q 200 360 255 330" stroke="#4169c4" stroke-width="6" fill="none"/>
  <circle cx="200" cy="345" r="15" fill="#4169c4"/>
  <circle cx="200" cy="345" r="10" fill="#5179d4"/>

  <!-- Braços -->
  <path d="M 120 280 Q 80 320 70 380" stroke="url(#skinGrad)" stroke-width="35" fill="none" stroke-linecap="round"/>
  <path d="M 280 280 Q 320 320 330 380" stroke="url(#skinGrad)" stroke-width="35" fill="none" stroke-linecap="round"/>

  <!-- Mangas do jaleco -->
  <path d="M 115 265 L 95 310 L 105 315 L 125 270 Z" fill="#ffffff" stroke="#e0e0e0" stroke-width="1"/>
  <path d="M 285 265 L 305 310 L 295 315 L 275 270 Z" fill="#ffffff" stroke="#e0e0e0" stroke-width="1"/>
</svg>
