<svg width="1024" height="1024" version="1.1" xmlns="http://www.w3.org/2000/svg" desc="Created with imagetracer.js version 1.2.6" ><path fill="rgb(0,0,0)" stroke="rgb(0,0,0)" stroke-width="1" opacity="0" d="M 0 0 L 1024 0 L 1024 1024 L 0 1024 L 0 0 Z M 314 127 L 302 134 L 299 138 L 296 139 L 295 142 L 290 141 L 269 144 L 260 147 L 240 159 L 225 181 L 218 199 L 218 201 L 214 216 Q 215 224 213 229 L 212 234 L 213 235 L 213 255 L 215 262 L 214 265 L 207 264 L 205 264 L 162 264 L 161 265 L 159 266 L 159 283 L 159 287 Q 161 288 160 293 L 159 298 L 160 303 L 160 305 L 159 308 L 160 319 L 159 322 L 159 324 L 159 351 L 160 352 L 159 357 L 160 360 Q 161 364 159 366 L 160 367 L 160 383 L 164 384 L 169 383 L 171 384 L 180 384 L 181 383 L 196 384 L 197 385 L 198 384 L 238 384 L 240 384 L 242 385 L 243 384 L 252 384 Q 253 387 255 385 Q 260 383 259 388 L 259 390 L 260 391 L 260 409 L 260 413 L 261 421 L 261 423 L 260 426 L 261 431 L 261 433 L 262 434 L 263 451 L 264 452 L 263 454 L 267 472 L 270 482 L 272 484 L 273 490 L 280 505 L 292 523 L 296 527 L 295 528 L 299 529 L 302 533 Q 304 532 303 536 L 309 539 L 312 544 L 315 544 L 328 554 L 351 563 L 355 563 L 356 565 L 356 577 L 355 580 L 356 583 L 356 589 Q 358 594 355 596 L 356 597 L 356 609 L 357 610 L 356 612 L 357 615 L 357 619 L 358 620 L 360 641 L 362 646 L 361 648 L 368 668 L 367 670 L 383 706 L 386 709 L 385 710 L 387 710 L 397 726 Q 396 728 399 727 L 408 739 L 409 742 L 415 746 Q 417 745 416 748 L 442 767 Q 441 770 445 768 L 445 770 L 448 770 L 457 776 L 481 787 L 484 787 L 494 792 L 501 793 Q 506 797 516 798 Q 517 801 519 799 L 532 801 L 537 803 L 540 804 L 542 803 Q 543 806 549 804 L 551 804 L 559 805 L 561 805 L 576 806 L 578 806 L 586 807 L 588 807 L 592 806 L 596 807 L 598 806 Q 608 805 614 807 L 618 824 L 625 837 L 629 841 L 628 842 L 630 842 L 636 849 Q 638 848 637 851 L 645 857 Q 644 859 648 858 L 648 860 L 658 864 Q 667 864 673 868 L 676 867 L 683 868 L 697 866 L 712 861 L 714 861 L 714 859 Q 723 857 729 850 Q 739 841 745 828 L 751 808 Q 749 801 752 800 L 748 778 Q 744 765 736 757 Q 726 745 713 737 L 695 731 L 671 731 L 663 733 Q 645 739 634 751 Q 635 753 632 752 L 632 754 L 630 754 L 623 764 L 619 774 L 615 777 L 613 776 L 565 776 L 564 775 L 554 775 L 518 768 L 496 760 L 472 748 Q 450 736 435 719 Q 432 720 433 718 L 429 715 L 409 688 L 396 661 L 389 638 L 387 628 L 387 619 L 384 607 L 384 569 L 385 566 Q 386 563 388 565 Q 389 562 395 563 L 397 563 L 399 562 L 401 562 L 422 553 L 424 554 L 426 553 L 433 577 L 445 603 L 468 637 L 470 637 L 479 647 Q 478 649 481 648 L 483 652 L 486 653 Q 488 652 487 655 L 490 656 L 492 660 L 496 661 L 514 674 Q 516 673 515 676 L 517 675 L 521 678 Q 524 677 523 680 L 527 680 L 534 684 L 540 688 L 541 687 L 552 692 L 556 692 L 558 694 Q 562 692 561 696 L 563 695 L 578 700 L 584 700 L 586 700 L 595 703 L 604 704 L 606 704 L 609 705 L 611 704 L 617 705 L 619 705 L 621 706 L 623 705 L 627 706 L 629 706 L 638 706 L 639 707 L 642 706 L 646 706 Q 650 705 652 707 L 658 705 L 660 706 L 662 706 L 669 704 L 671 705 L 679 704 L 681 704 L 684 703 L 686 703 L 695 700 L 697 701 Q 723 694 746 683 L 781 660 Q 801 642 816 619 Q 828 598 836 574 L 836 570 L 840 559 L 843 535 L 844 534 L 845 500 L 846 499 L 846 458 L 847 455 L 844 452 L 822 452 L 821 453 L 819 452 Q 814 451 813 453 L 808 452 L 806 453 L 631 452 L 629 454 L 629 463 L 628 464 L 629 467 L 628 472 L 629 475 L 629 479 L 629 491 L 628 493 L 629 496 L 628 497 L 628 509 L 627 512 L 628 515 L 627 520 Q 629 521 628 526 L 628 528 L 627 536 Q 627 540 633 539 L 636 538 L 638 539 L 642 538 L 646 539 Q 647 537 652 538 L 655 539 L 660 538 L 664 540 L 665 539 L 700 539 L 705 540 L 710 539 L 733 539 L 737 542 Q 731 565 717 581 Q 709 591 698 597 Q 695 596 696 599 L 673 609 L 647 614 L 625 614 L 624 613 L 615 613 L 614 612 L 602 611 Q 600 608 595 609 L 573 599 L 558 588 Q 539 572 528 548 L 520 523 L 519 509 L 517 502 L 517 469 L 518 468 L 520 447 L 525 428 Q 535 401 552 382 L 572 364 L 586 356 L 607 348 L 609 349 Q 610 345 617 347 L 619 347 L 623 346 L 629 346 L 634 344 L 650 346 L 652 346 L 673 351 L 678 354 L 683 355 L 704 367 L 707 371 Q 706 373 710 372 L 712 376 Q 717 377 720 382 Q 719 384 722 383 L 729 392 Q 728 394 731 393 L 731 396 L 733 396 L 739 406 L 741 412 L 745 415 L 749 415 L 758 410 Q 759 406 761 409 L 761 407 L 777 399 Q 778 395 780 398 L 780 396 L 786 394 Q 787 390 789 393 L 789 391 L 799 386 Q 800 382 802 385 L 802 383 L 818 375 L 821 372 L 822 373 L 822 371 L 827 370 L 829 366 Q 815 338 795 317 Q 778 298 757 284 L 735 272 L 730 271 L 715 264 L 686 256 L 674 255 L 662 252 L 653 252 L 652 251 L 609 251 L 607 251 L 606 252 L 596 252 L 584 255 L 573 256 L 547 264 L 545 266 L 533 270 Q 531 274 529 271 L 529 258 L 531 249 L 531 205 L 527 191 L 527 187 L 523 177 L 516 166 L 507 156 L 492 147 L 471 141 L 454 140 L 452 138 Q 445 130 434 127 Q 423 127 418 132 L 415 134 Q 409 139 407 148 L 408 161 L 415 172 L 427 178 L 430 178 L 433 179 L 435 178 L 438 179 L 442 177 L 444 177 L 444 175 L 448 174 L 455 168 L 457 168 L 459 167 L 465 168 L 467 168 L 474 170 L 476 172 L 479 172 L 482 175 L 485 175 L 491 179 L 499 190 Q 500 196 503 200 L 504 212 L 505 213 L 505 227 L 506 228 Q 504 232 505 241 L 505 245 L 504 253 L 504 255 L 501 273 L 501 275 Q 499 276 500 281 L 500 283 L 498 291 L 493 295 L 493 277 L 495 271 L 494 266 L 471 266 L 470 265 L 330 265 L 326 265 L 325 264 L 245 264 L 243 259 L 242 243 L 241 242 L 242 220 L 243 219 L 244 208 L 249 194 L 254 186 Q 263 173 282 169 L 284 169 L 288 167 L 297 168 L 305 175 L 315 179 L 317 178 L 319 178 L 321 179 L 332 175 Q 340 170 342 160 L 342 145 L 337 136 L 327 128 L 314 127 Z " /><path fill="rgb(0,0,0)" stroke="rgb(0,0,0)" stroke-width="1" opacity="0" d="M 187.5 289 L 190.5 290 L 195.5 289 L 198.5 290 Q 206 291.5 209.5 289 L 211.5 290 L 212.5 289 L 222.5 289 Q 224.3 291.8 230.5 290 L 233.5 289 L 236.5 290 L 240.5 289 L 242.5 290 L 244.5 289 L 246.5 289 L 257.5 290 L 259.5 290 Q 270.3 291.8 276.5 289 L 279.5 290 L 282.5 289 L 315.5 289 L 316.5 290 L 317.5 289 L 327.5 289 L 329.5 289 L 341.5 289 L 342.5 290 L 344.5 290 L 352.5 289 L 354.5 289 L 365.5 290 L 368.5 289 L 396.5 289 L 397.5 290 L 406.5 289 L 409.5 290 L 410.5 289 L 418.5 289 L 423.5 290 L 425.5 289 L 430.5 290 L 432.5 290 L 443.5 289 L 445.5 290 L 449.5 290 L 453.5 289 L 455.5 289 L 467 290 L 468 296.5 L 467 299.5 Q 467.9 307.9 465 312.5 L 465 316.5 L 463 324.5 L 463 326.5 L 459 336.5 L 444.5 360 L 441.5 361 L 440.5 360 L 369.5 360 L 368 361.5 L 368 370.5 L 367 371.5 L 368 376.5 L 368 382.5 L 367 385.5 L 368 389.5 L 367 390.5 L 367 400.5 L 366 401.5 L 367 402.5 L 367 442.5 L 367 446.5 Q 368.5 452 366 453.5 L 367 458.5 L 366 460.5 L 366 480.5 L 365 481.5 L 366 482.5 L 366 529.5 Q 364.8 532.3 359.5 531 L 347.5 527 L 334.5 520 L 319 505.5 L 317 502.5 L 311 495.5 L 301 476.5 L 295 460.5 L 291 444.5 L 291 437.5 L 288 427.5 L 288 415.5 L 287 414.5 L 287 361 L 278.5 361 L 277.5 360 L 275.5 361 L 272.5 360 L 185.5 360 L 184 358.5 L 184 291.5 L 185.5 290 L 187.5 289 Z " /><path fill="rgb(0,0,0)" stroke="rgb(0,0,0)" stroke-width="1" opacity="0" d="M 408.5 383 L 413.5 385 L 420.5 384 L 431.5 384 L 433 385.5 L 428 397.5 L 428 399.5 L 423 418.5 L 421 421.5 L 421 423.5 L 417 441.5 L 417 443.5 L 416 445.5 L 416 447.5 L 417 449.5 Q 413.5 451 416 452.5 L 415 460.5 L 415 466.5 L 416 469.5 L 415 472.5 L 416 481.5 L 415 489.5 L 415 491.5 L 416 494.5 L 416 500.5 L 417 514.5 L 415 519 L 402.5 526 L 392.5 529 L 390 526.5 L 390 473.5 L 391 472.5 L 391 385.5 L 392.5 384 L 397.5 385 L 400.5 384 Q 406.7 385.8 408.5 383 Z " /><path fill="rgb(0,0,0)" stroke="rgb(0,0,0)" stroke-width="1" opacity="0" d="M 676.5 754 L 686.5 754 L 701.5 758 Q 711.5 763 718 771.5 L 725 782.5 L 728 792.5 L 728 800.5 L 728 802.5 L 727 810.5 L 723 821.5 L 712.5 833 L 709.5 835 L 694.5 843 L 673.5 844 Q 661.9 840.8 654 835 L 652.5 832 L 650 830.5 Q 641.6 821.4 637 808.5 L 636 794.5 Q 639.2 775.2 651.5 765 L 666.5 756 L 676.5 754 Z M 677 768 L 664 773 Q 654 779 651 793 L 651 795 Q 653 800 650 802 L 652 812 L 657 820 L 668 828 L 679 831 L 681 830 L 685 831 L 697 828 L 702 825 L 709 817 L 713 808 Q 712 802 714 801 L 712 788 L 708 781 Q 703 773 693 769 L 677 768 Z " /><path fill="rgb(122,209,240)" stroke="rgb(122,209,240)" stroke-width="1" opacity="0.9450980392156862" d="M 313.5 127 L 326.5 128 L 337 135.5 L 342 144.5 L 342 159.5 Q 339.7 170.2 331.5 175 L 320.5 179 L 318.5 178 L 316.5 178 L 314.5 179 L 304.5 175 L 296.5 168 L 287.5 167 L 283.5 169 L 281.5 169 Q 263.4 172.9 254 185.5 L 249 193.5 L 244 207.5 L 243 218.5 L 242 219.5 L 241 241.5 L 242 242.5 L 243 258.5 L 245 264 L 324.5 264 L 325.5 265 L 329.5 265 L 469.5 265 L 470.5 266 L 494 266 L 495 270.5 L 493 276.5 L 493 294.5 L 498 290.5 L 500 282.5 L 500 280.5 Q 498.7 275.7 501 274.5 L 501 272.5 L 504 254.5 L 504 252.5 L 505 244.5 L 505 240.5 Q 503.7 232.2 506 227.5 L 505 226.5 L 505 212.5 L 504 211.5 L 503 199.5 Q 499.5 196 499 189.5 L 490.5 179 L 484.5 175 L 481.5 175 L 478.5 172 L 475.5 172 L 473.5 170 L 466.5 168 L 464.5 168 L 458.5 167 L 456.5 168 L 454.5 168 L 447.5 174 L 444 175 L 443.5 177 L 441.5 177 L 437.5 179 L 434.5 178 L 432.5 179 L 429.5 178 L 426.5 178 L 415 172 L 408 160.5 L 407 147.5 Q 408.9 138.9 414.5 134 L 417.5 132 Q 422.7 126.7 433.5 127 Q 445.1 129.9 452 137.5 L 453.5 140 L 470.5 141 L 491.5 147 L 506.5 156 L 516 165.5 L 523 176.5 L 527 186.5 L 527 190.5 L 531 204.5 L 531 248.5 L 529 257.5 L 529 270.5 Q 530.8 273.8 532.5 270 L 544.5 266 L 546.5 264 L 572.5 256 L 583.5 255 L 595.5 252 L 605.5 252 L 606.5 251 L 608.5 251 L 651.5 251 L 652.5 252 L 661.5 252 L 673.5 255 L 685.5 256 L 714.5 264 L 729.5 271 L 734.5 272 L 756.5 284 Q 778.1 297.9 795 316.5 Q 815.2 337.8 829 365.5 L 826.5 370 L 822 371 L 821.5 373 L 820.5 372 L 817.5 375 L 802 383 L 801.5 385 Q 800 382.5 798.5 386 L 789 391 L 788.5 393 Q 787 390.5 785.5 394 L 780 396 L 779.5 398 Q 778 395.5 776.5 399 L 761 407 L 760.5 409 Q 759 406.5 757.5 410 L 748.5 415 L 744.5 415 L 741 411.5 L 739 405.5 L 733 396 L 731 396 L 731 393 Q 728.3 394.1 729 391.5 L 721.5 383 Q 719.3 383.8 720 381.5 Q 717.4 376.6 712 376 L 709.5 372 Q 706.2 373.1 707 370.5 L 703.5 367 L 682.5 355 L 677.5 354 L 672.5 351 L 651.5 346 L 649.5 346 L 633.5 344 L 628.5 346 L 622.5 346 L 618.5 347 L 616.5 347 Q 610 345.5 608.5 349 L 606.5 348 L 585.5 356 L 571.5 364 L 552 381.5 Q 535.1 401.1 525 427.5 L 520 446.5 L 518 467.5 L 517 468.5 L 517 501.5 L 519 508.5 L 520 522.5 L 528 547.5 Q 538.7 571.8 557.5 588 L 572.5 599 L 594.5 609 Q 599.8 608.2 601.5 611 L 613.5 612 L 614.5 613 L 623.5 613 L 624.5 614 L 646.5 614 L 672.5 609 L 696 599 Q 694.9 596.3 697.5 597 Q 709.3 590.8 717 580.5 Q 730.7 564.7 737 541.5 L 732.5 539 L 709.5 539 L 704.5 540 L 699.5 539 L 664.5 539 L 663.5 540 L 659.5 538 L 654.5 539 L 651.5 538 Q 646.8 536.7 645.5 539 L 641.5 538 L 637.5 539 L 635.5 538 L 632.5 539 Q 627.5 539.5 627 535.5 L 628 527.5 L 628 525.5 Q 629.2 520.8 627 519.5 L 628 514.5 L 627 511.5 L 628 508.5 L 628 496.5 L 629 495.5 L 628 492.5 L 629 490.5 L 629 478.5 L 629 474.5 L 628 471.5 L 629 466.5 L 628 463.5 L 629 462.5 L 629 453.5 L 630.5 452 L 805.5 453 L 807.5 452 L 812.5 453 Q 813.8 450.8 818.5 452 L 820.5 453 L 821.5 452 L 843.5 452 L 847 454.5 L 846 457.5 L 846 498.5 L 845 499.5 L 844 533.5 L 843 534.5 L 840 558.5 L 836 569.5 L 836 573.5 Q 828.1 598.1 816 618.5 Q 801.5 642.5 780.5 660 L 745.5 683 Q 722.9 693.9 696.5 701 L 694.5 700 L 685.5 703 L 683.5 703 L 680.5 704 L 678.5 704 L 670.5 705 L 668.5 704 L 661.5 706 L 659.5 706 L 657.5 705 L 651.5 707 Q 650.2 704.7 645.5 706 L 641.5 706 L 638.5 707 L 637.5 706 L 628.5 706 L 626.5 706 L 622.5 705 L 620.5 706 L 618.5 705 L 616.5 705 L 610.5 704 L 608.5 705 L 605.5 704 L 603.5 704 L 594.5 703 L 585.5 700 L 583.5 700 L 577.5 700 L 562.5 695 L 561 695.5 Q 561.9 692.5 557.5 694 L 555.5 692 L 551.5 692 L 540.5 687 L 539.5 688 L 533.5 684 L 526.5 680 L 523 680 Q 524.3 677 520.5 678 L 516.5 675 L 515 675.5 Q 515.8 673.3 513.5 674 L 495.5 661 L 492 660 L 489.5 656 L 487 654.5 Q 487.8 652.3 485.5 653 L 483 652 L 480.5 648 Q 478.3 648.8 479 646.5 L 469.5 637 L 468 637 L 445 602.5 L 433 576.5 L 426 553 L 423.5 554 L 421.5 553 L 400.5 562 L 398.5 562 L 396.5 563 L 394.5 563 Q 388.8 561.8 387.5 565 Q 386.2 562.8 385 565.5 L 384 568.5 L 384 606.5 L 387 618.5 L 387 627.5 L 389 637.5 L 396 660.5 L 409 687.5 L 429 715 L 433 717.5 Q 432.3 719.8 434.5 719 Q 450.4 736.1 471.5 748 L 495.5 760 L 517.5 768 L 553.5 775 L 563.5 775 L 564.5 776 L 612.5 776 L 614.5 777 L 619 773.5 L 623 763.5 L 630 754 L 632 754 L 632 752 Q 634.7 753.1 634 750.5 Q 645.2 738.7 662.5 733 L 670.5 731 L 694.5 731 L 712.5 737 Q 726.4 744.6 736 756.5 Q 743.5 765.5 748 777.5 L 752 799.5 Q 749.2 801.3 751 807.5 L 745 827.5 Q 738.8 840.8 728.5 850 Q 722.8 856.7 714 859 L 713.5 861 L 711.5 861 L 696.5 866 L 682.5 868 L 675.5 867 L 672.5 868 Q 666.8 864.2 657.5 864 L 648 860 L 648 858 Q 644.3 859.5 645 856.5 L 637 851 Q 638.1 848.3 635.5 849 L 629.5 842 L 628 841.5 L 629 840.5 L 625 836.5 L 618 823.5 L 614 807 Q 608 805 597.5 806 L 595.5 807 L 591.5 806 L 587.5 807 L 585.5 807 L 577.5 806 L 575.5 806 L 560.5 805 L 558.5 805 L 550.5 804 L 548.5 804 Q 543 805.5 541.5 803 L 539.5 804 L 536.5 803 L 531.5 801 L 518.5 799 Q 517 801.5 515.5 798 Q 506.4 797.1 500.5 793 L 493.5 792 L 483.5 787 L 480.5 787 L 456.5 776 L 447.5 770 L 445 770 L 445 768 Q 441.3 769.5 442 766.5 L 416 748 Q 417.1 745.3 414.5 746 L 409 742 L 408 738.5 L 399 727 Q 396.3 728.1 397 725.5 L 387 710 L 385 709.5 L 386 708.5 L 383 705.5 L 367 669.5 L 368 667.5 L 361 647.5 L 362 645.5 L 360 640.5 L 358 619.5 L 357 618.5 L 357 614.5 L 356 611.5 L 357 609.5 L 356 608.5 L 356 596.5 L 355 595.5 Q 357.5 594 356 588.5 L 356 582.5 L 355 579.5 L 356 576.5 L 356 564.5 L 354.5 563 L 350.5 563 L 327.5 554 L 314.5 544 L 312 544 L 308.5 539 L 303 536 Q 304.5 532.2 301.5 533 L 299 529 L 295 527.5 L 296 526.5 L 292 522.5 L 280 504.5 L 273 489.5 L 272 483.5 L 270 481.5 L 267 471.5 L 263 453.5 L 264 451.5 L 263 450.5 L 262 433.5 L 261 432.5 L 261 430.5 L 260 425.5 L 261 422.5 L 261 420.5 L 260 412.5 L 260 408.5 L 260 390.5 L 259 389.5 L 259 387.5 Q 260.4 382.9 254.5 385 Q 253 387.5 251.5 384 L 242.5 384 L 241.5 385 L 239.5 384 L 237.5 384 L 197.5 384 L 196.5 385 L 195.5 384 L 180.5 383 L 179.5 384 L 170.5 384 L 168.5 383 L 163.5 384 L 160 383 L 160 366.5 L 159 365.5 Q 161.3 364.2 160 359.5 L 159 356.5 L 160 351.5 L 159 350.5 L 159 323.5 L 159 321.5 L 160 318.5 L 159 307.5 L 160 304.5 L 160 302.5 L 159 297.5 L 160 292.5 Q 161.3 287.7 159 286.5 L 159 282.5 L 159 265.5 L 160.5 265 L 161.5 264 L 204.5 264 L 206.5 264 L 214 265 L 215 261.5 L 213 254.5 L 213 234.5 L 212 233.5 L 213 228.5 Q 215.3 223.8 214 215.5 L 218 200.5 L 218 198.5 L 225 180.5 L 240 159 L 259.5 147 L 268.5 144 L 289.5 141 L 294.5 142 L 296 139 L 299 137.5 L 301.5 134 L 313.5 127 Z M 188 289 L 186 290 L 184 292 L 184 359 L 186 360 L 273 360 L 276 361 L 278 360 L 279 361 L 287 361 L 287 415 L 288 416 L 288 428 L 291 438 L 291 445 L 295 461 L 301 477 L 311 496 L 317 503 L 319 506 L 335 520 L 348 527 L 360 531 Q 365 532 366 530 L 366 483 L 365 482 L 366 481 L 366 461 L 367 459 L 366 454 Q 369 452 367 447 L 367 443 L 367 403 L 366 402 L 367 401 L 367 391 L 368 390 L 367 386 L 368 383 L 368 377 L 367 372 L 368 371 L 368 362 L 370 360 L 441 360 L 442 361 L 445 360 L 459 337 L 463 327 L 463 325 L 465 317 L 465 313 Q 468 308 467 300 L 468 297 L 467 290 L 456 289 L 454 289 L 450 290 L 446 290 L 444 289 L 433 290 L 431 290 L 426 289 L 424 290 L 419 289 L 411 289 L 410 290 L 407 289 L 398 290 L 397 289 L 369 289 L 366 290 L 355 289 L 353 289 L 345 290 L 343 290 L 342 289 L 330 289 L 328 289 L 318 289 L 317 290 L 316 289 L 283 289 L 280 290 L 277 289 Q 270 292 260 290 L 258 290 L 247 289 L 245 289 L 243 290 L 241 289 L 237 290 L 234 289 L 231 290 Q 224 292 223 289 L 213 289 L 212 290 L 210 289 Q 206 292 199 290 L 196 289 L 191 290 L 188 289 Z M 409 383 Q 407 386 401 384 L 398 385 L 393 384 L 391 386 L 391 473 L 390 474 L 390 527 L 393 529 L 403 526 L 415 519 L 417 515 L 416 501 L 416 495 L 415 492 L 415 490 L 416 482 L 415 473 L 416 470 L 415 467 L 415 461 L 416 453 Q 413 451 417 450 L 416 448 L 416 446 L 417 444 L 417 442 L 421 424 L 421 422 L 423 419 L 428 400 L 428 398 L 433 386 L 432 384 L 421 384 L 414 385 L 409 383 Z M 677 754 L 667 756 L 652 765 Q 639 775 636 795 L 637 809 Q 642 821 650 831 L 653 832 L 654 835 Q 662 841 674 844 L 695 843 L 710 835 L 713 833 L 723 822 L 727 811 L 728 803 L 728 801 L 728 793 L 725 783 L 718 772 Q 711 763 702 758 L 687 754 L 677 754 Z " /><path fill="rgb(122,209,240)" stroke="rgb(122,209,240)" stroke-width="1" opacity="0.9450980392156862" d="M 676.5 768 L 692.5 769 Q 702.5 772.5 708 780.5 L 712 787.5 L 714 800.5 Q 711.5 802 713 807.5 L 709 816.5 L 701.5 825 L 696.5 828 L 684.5 831 L 680.5 830 L 678.5 831 L 667.5 828 L 657 819.5 L 652 811.5 L 650 801.5 Q 652.5 800 651 794.5 L 651 792.5 Q 653.6 779.1 663.5 773 L 676.5 768 Z " /></svg>